<svg xmlns="http://www.w3.org/2000/svg" xml:space="preserve" viewBox="0 0 512 512"><path d="M512 256c0-26.6-10.3-51.5-29.1-70.3L465 167.8V128c0-44.6-36.3-80.9-80.9-80.9h-39.7l-18-18c-38.8-38.8-101.9-38.8-140.7 0l-18 18h-39.4c-44.6 0-80.9 36.3-80.9 80.9v39.4l-18.2 18.2C10.3 204.4 0 229.4 0 256s10.3 51.5 29.1 70.3l18.2 18.2v39.4c0 44.6 36.3 80.9 80.9 80.9h39.4l18 18c18.8 18.8 43.8 29.1 70.3 29.1 26.6 0 51.5-10.3 70.3-29.1l18-18h39.7c44.6 0 80.9-36.3 80.9-80.9v-39.7l17.9-17.9c19-18.8 29.3-43.8 29.3-70.3M331.9 424.7H180.1L87.4 332V180l92.7-92.7h151.7l93 93v151.4zm93-297-40.4-40.4c22.2.1 40.2 18.2 40.4 40.4M289.8 47.2h-67.6c20.5-13.3 47.1-13.3 67.6 0m-162.3 40-40.1 40.1c.4-21.9 18.2-39.7 40.1-40.1M47.3 221.9V290c-13.4-20.6-13.4-47.5 0-68.1m40.1 162.7 40.1 40.1c-21.9-.3-39.7-18.1-40.1-40.1M256 474.8c-12.2 0-23.9-3.5-33.8-10h67.7c-10.1 6.5-21.7 10-33.9 10m128.5-50.1 40.4-40.4c-.2 22.2-18.2 40.2-40.4 40.4M465 289.6v-67.2c13 20.4 13 46.8 0 67.2" style="fill:#fff"/></svg>